<svg xmlns="http://www.w3.org/2000/svg" viewBox="0 0 420 420"><defs><radialGradient id="h"><stop stop-color="#9c372c" stop-opacity=".45"/><stop offset="1" stop-color="#08090a" stop-opacity="0"/></radialGradient><linearGradient id="m" x1="0" y1="0" x2="1" y2="1"><stop stop-color="#665a4e"/><stop offset=".5" stop-color="#19191a"/><stop offset="1" stop-color="#8d3228"/></linearGradient><filter id="d"><feDropShadow dx="0" dy="10" stdDeviation="10" flood-color="#000" flood-opacity=".8"/><feDropShadow dx="0" dy="0" stdDeviation="7" flood-color="#d44334" flood-opacity=".25"/></filter></defs><circle cx="210" cy="210" r="186" fill="url(#h)"/><g filter="url(#d)"><path d="M68 145 C112 120 141 91 166 48 C177 89 173 113 159 137 C190 112 215 79 227 43 C241 82 245 112 239 141 C272 117 302 91 332 58 C322 109 307 143 284 169 C320 163 348 168 374 180 C339 192 313 211 292 234 C327 241 349 256 365 282 C324 278 291 267 263 247 C256 301 238 343 210 382 C182 344 164 302 158 248 C129 269 97 279 55 282 C72 255 94 240 128 234 C108 211 81 193 45 180 C71 168 99 163 135 169 C111 143 96 110 88 76 C118 106 144 128 166 141 C158 111 160 82 168 53" fill="none" stroke="#4a3933" stroke-width="13" stroke-linecap="round"/></g><path d="M132 164 L164 113 L210 92 L256 113 L288 164 L270 274 L210 327 L150 274Z" fill="url(#m)" stroke="#1a1414" stroke-width="9"/><path d="M160 172 L188 158 L210 177 L232 158 L260 172 L242 215 L210 232 L178 215Z" fill="#070809" stroke="#9d4135" stroke-width="6"/><circle cx="185" cy="188" r="7" fill="#e34c38"/><circle cx="235" cy="188" r="7" fill="#e34c38"/><path d="M185 252 Q210 270 235 252" fill="none" stroke="#b9a98d" stroke-width="6"/><path d="M210 112 V75 M190 91 L210 72 L230 91" fill="none" stroke="#b99c61" stroke-width="7" stroke-linecap="round"/></svg>