<svg xmlns="http://www.w3.org/2000/svg" viewBox="0 0 256 256" role="img" aria-label="black knight">
<defs>
  <linearGradient id="body" x1="0" y1="0" x2="1" y2="1"><stop offset="0" stop-color="#332a2b"/><stop offset=".55" stop-color="#0f1113"/><stop offset="1" stop-color="#332a2b"/></linearGradient>
  <radialGradient id="halo"><stop offset="0" stop-color="#e5523f" stop-opacity=".28"/><stop offset=".7" stop-color="#e5523f" stop-opacity=".05"/><stop offset="1" stop-color="#e5523f" stop-opacity="0"/></radialGradient>
  <filter id="shadow" x="-40%" y="-40%" width="180%" height="180%"><feDropShadow dx="0" dy="8" stdDeviation="7" flood-color="#000" flood-opacity=".65"/><feDropShadow dx="0" dy="0" stdDeviation="5" flood-color="#e5523f" flood-opacity=".20"/></filter>
</defs>
<style>
.body{fill:url(#body);stroke:#a44234;stroke-width:6;stroke-linejoin:round;filter:url(#shadow)}
.accentLine{fill:none;stroke:#9b3027;stroke-width:5;stroke-linecap:round;stroke-linejoin:round}
.accentLine.heavy{stroke-width:7}
.gem{fill:#d34b38;stroke:#a44234;stroke-width:3}
.cut{fill:#090a0b;stroke:#9b3027;stroke-width:3}
</style>
<circle cx="128" cy="130" r="106" fill="url(#halo)"/>
<circle cx="128" cy="130" r="103" fill="none" stroke="#7d2a26" stroke-opacity=".35" stroke-width="2" stroke-dasharray="3 12"/>

  <path d="M75 213 H188 L177 184 C164 165 159 150 162 130 C165 111 183 93 187 70 C176 76 166 82 154 86 C145 66 126 50 101 42 C111 58 111 74 104 87 C94 105 74 116 69 139 C65 158 76 175 95 182 L84 190 Z" class="body"/>
  <path d="M121 78 C138 80 151 89 159 103" class="accentLine"/>
  <circle cx="135" cy="94" r="5" class="gem"/>
  <path d="M94 213 H195 L202 228 H84 Z" class="body"/>

</svg>